<svg xmlns="http://www.w3.org/2000/svg" width="128" height="128" fill="none"><rect width="127" height="127" x=".5" y=".5" fill="#fff" fill-opacity=".5" stroke="#8BAA36" rx="7.5"/><path stroke="#8BAA36" stroke-linecap="round" stroke-width="2" d="m71.5 44-.385.128A10.406 10.406 0 0 0 64 54v-6.352a7.5 7.5 0 0 0-6.03-7.354L51.5 39v1.352a7.5 7.5 0 0 0 6.029 7.354L63.999 49m9.604 1.872a8.789 8.789 0 0 1 6.983 2.725 9.816 9.816 0 0 1 2.686 6.583l-.007.566-.064 1.579a42.12 42.12 0 0 1-1.615 9.957l-.37 1.21-.917 2.857a11.096 11.096 0 0 1-7.487 7.266c-1.507.435-3.561.342-6.161-.28l-.723-.183a7.5 7.5 0 0 0-3.858 0c-2.944.783-5.238.938-6.883.463A11.096 11.096 0 0 1 47.7 76.35l-.918-2.856a42.123 42.123 0 0 1-1.984-11.168l-.064-1.579a9.816 9.816 0 0 1 2.68-7.149 8.789 8.789 0 0 1 6.982-2.725l1.545.106c2.222.152 4.908 1.782 8.06 4.891 2.917-2.963 5.408-4.574 7.473-4.835l.584-.056 1.545-.106Z"/></svg>