<svg xmlns="http://www.w3.org/2000/svg" width="128" height="128" fill="none"><rect width="127" height="127" x=".5" y=".5" fill="#fff" fill-opacity=".5" stroke="#8BAA36" rx="7.5"/><g clip-path="url(#a)"><path stroke="#8BAA36" stroke-linecap="round" stroke-width="2" d="M50.344 58.639c4.254-4.254 10.48-4.923 13.909-1.495a7.345 7.345 0 0 1 1.882 3.263 35.937 35.937 0 0 1-5.482 5.529c.005-1.816-.601-3.514-1.856-4.769-2.591-2.591-7.073-2.415-10.566.218a13.2 13.2 0 0 1 2.113-2.746Zm27.116 4.239-.143-.006c4.848 0 8.778 4.876 8.778 10.891 0 .722-.056 1.427-.163 2.107-1.213-3.69-4.16-6.296-7.602-6.296-.67 0-1.32.099-1.944.285a9.53 9.53 0 0 0-1.67-2.251l.157.166a26.12 26.12 0 0 0 2.222-4.02l.365-.876Zm-.784-19.338a3.014 3.014 0 0 1 2.36 2.809l.253 5.69a25.997 25.997 0 0 1-4.415 15.733l-.158-.164c-3.947-3.947-10.596-3.759-15.174.31l.393.003c2.087.059 4.071.825 5.571 2.325 1.275 1.275 2.02 2.9 2.25 4.641a25.989 25.989 0 0 1-13.392 4.403 26.14 26.14 0 0 1-2.326 0l-5.69-.254a3.014 3.014 0 0 1-.517-5.953 35.836 35.836 0 0 0 27.251-27.251 3.014 3.014 0 0 1 3.594-2.292ZM59.542 67.917c4.578-4.068 11.227-4.256 15.174-.31 4.114 4.114 3.735 11.162-.845 15.743-3.697 3.697-9.001 4.656-13.073 2.727a11.22 11.22 0 0 0 3.806-2.515c3.926-3.926 4.33-9.888.902-13.316-1.5-1.5-3.484-2.266-5.571-2.325l-.393-.004Z" clip-rule="evenodd"/></g><defs><clipPath id="a"><path fill="#fff" d="M34 34h60v60H34z"/></clipPath></defs></svg>