<svg xmlns="http://www.w3.org/2000/svg" width="14" height="14" fill="none"><path stroke="#FAFAFA" stroke-linecap="round" stroke-linejoin="round" stroke-width="1.2" d="M9.333 3.5v-.467c0-.653 0-.98-.127-1.23a1.167 1.167 0 0 0-.51-.51c-.25-.126-.576-.126-1.23-.126h-.933c-.653 0-.98 0-1.23.127-.219.112-.397.29-.51.51-.126.25-.126.576-.126 1.23V3.5m1.166 3.208v2.917m2.334-2.917v2.917M1.75 3.5h10.5m-1.167 0v6.533c0 .98 0 1.47-.19 1.845a1.75 1.75 0 0 1-.765.765c-.375.19-.865.19-1.845.19H5.717c-.98 0-1.47 0-1.845-.19a1.75 1.75 0 0 1-.765-.765c-.19-.374-.19-.865-.19-1.845V3.5"/></svg>