<svg xmlns="http://www.w3.org/2000/svg" width="128" height="128" fill="none"><rect width="127" height="127" x=".5" y=".5" fill="#fff" fill-opacity=".5" stroke="#8BAA36" rx="7.5"/><path stroke="#8BAA36" stroke-linecap="round" stroke-width="2" d="M54.9 57.444c11.6-7.234 26.866-3.696 34.1 7.902l-.572.875a24.75 24.75 0 0 1-4.944 5.335c-9.73 7.803-23.55 7.061-32.391-1.228a9.172 9.172 0 0 1-9.213 5.823l-.38-.036v-.644c0-3.862 1.69-7.39 4.43-9.803a11.428 11.428 0 0 1-4.412-8.4l-.018-.642v-2.05l.518.022a10.452 10.452 0 0 1 8.8 6.033 24.692 24.692 0 0 1 4.083-3.187Zm14.193 19.531.329-.015c-1.822 1.815-4.057 3.193-6.6 3.94-1.975.58-3.963.727-5.88.495a28.133 28.133 0 0 0 2.154-6.053 24.82 24.82 0 0 0 9.997 1.633Zm2.44-23.378.259.39a24.646 24.646 0 0 0-14.74 2.258c-1.435-3.03-3.359-5.673-5.625-7.832a15.32 15.32 0 0 1 3.13-1.313c6.525-1.915 13.189.886 16.976 6.497Z" clip-rule="evenodd"/><path stroke="#8BAA36" stroke-linecap="round" stroke-linejoin="round" stroke-width="2" d="M77.75 63v-.25.25Z" clip-rule="evenodd"/></svg>