<svg xmlns="http://www.w3.org/2000/svg" width="44" height="44" fill="none"><rect width="44" height="44" fill="#EBF3D4" rx="12"/><path stroke="#8BAA36" stroke-linecap="round" stroke-linejoin="round" stroke-width="3" d="M10.75 10.855v5.69-.113c0 1.593.656 3.003 1.674 3.915.497.446.826 1.049.826 1.718v9.31a1.876 1.876 0 0 0 3.75 0v-9.31c0-.67.329-1.272.826-1.718 1.018-.912 1.674-2.322 1.674-3.915v-5.577 5.577M15.125 17v-6.25M32 12.065c0-.69-.56-1.25-1.25-1.25H29.5a3.75 3.75 0 0 0-3.75 3.75v7.5a3.738 3.738 0 0 0 2.5 3.52v5.79a1.876 1.876 0 0 0 3.75 0v-19.31Z"/></svg>