<svg xmlns="http://www.w3.org/2000/svg" width="24" height="25" fill="none"><path stroke="#FAFAFA" stroke-linecap="round" stroke-linejoin="round" stroke-width="2" d="m2 7.5 8.165 5.715c.661.463.992.695 1.351.784a2 2 0 0 0 .968 0c.36-.09.69-.32 1.351-.784L22 7.5m-15.2 13h10.4c1.68 0 2.52 0 3.162-.327a3 3 0 0 0 1.311-1.311C22 18.22 22 17.38 22 15.7V9.3c0-1.68 0-2.52-.327-3.162a3 3 0 0 0-1.311-1.311C19.72 4.5 18.88 4.5 17.2 4.5H6.8c-1.68 0-2.52 0-3.162.327a3 3 0 0 0-1.311 1.311C2 6.78 2 7.62 2 9.3v6.4c0 1.68 0 2.52.327 3.162a3 3 0 0 0 1.311 1.311c.642.327 1.482.327 3.162.327Z" opacity=".8"/></svg>