<svg xmlns="http://www.w3.org/2000/svg" width="128" height="128" fill="none"><rect width="127" height="127" x=".5" y=".5" fill="#fff" fill-opacity=".5" stroke="#8BAA36" rx="7.5"/><path stroke="#8BAA36" stroke-linecap="round" stroke-width="2" d="M59 49c9.665 0 17.5 7.835 17.5 17.5 0 .936-.074 1.856-.215 2.752l-7.996-7.992A14.6 14.6 0 0 0 64 71.615c0 3.843 1.48 7.34 3.902 9.953A17.403 17.403 0 0 1 59 84c-9.665 0-17.5-7.835-17.5-17.5S49.335 49 59 49Zm0 0-6.47-1.294a7.5 7.5 0 0 1-6.03-7.355V39l6.47 1.294A7.5 7.5 0 0 1 59 47.65V51.5m0-2.5v2.5m0 0a8.09 8.09 0 0 1 4.472-7.236L64 44m7.476 20.686-.129-.128-3.058-3.058A14.6 14.6 0 0 0 64 71.855c0 .978.096 1.934.279 2.858.188.952.469 1.872.832 2.748.742 1.79 1.83 3.4 3.178 4.75a14.668 14.668 0 0 0 4.75 3.178c.876.363 1.796.644 2.748.832.924.183 1.88.279 2.858.279A14.6 14.6 0 0 0 89 82.21l-3.058-3.057-.128-.129M71.476 64.686a10.107 10.107 0 0 0-2.97 7.17m2.97-7.17.576.576.68.681 1.29 1.29.61.61 2.687 2.687 1.326 1.325m-10.139 0c0 5.6 4.54 10.139 10.139 10.139M68.506 71.855c0 .677.066 1.339.193 1.979l9.946-1.979m0 10.139c2.8 0 5.334-1.135 7.169-2.97m-7.17 2.97c-1.374 0-2.685-.274-3.88-.77l3.88-9.369m7.17 7.17-.576-.577-.681-.68-1.29-1.29-.61-.61-2.687-2.687-1.325-1.326"/></svg>