<svg xmlns="http://www.w3.org/2000/svg" width="24" height="25" fill="none"><path stroke="#fff" stroke-linecap="round" stroke-linejoin="round" stroke-width="2" d="M17 11.5v-3a5 5 0 0 0-10 0v3m.8 10h8.4c1.68 0 2.52 0 3.162-.327a3 3 0 0 0 1.311-1.311C21 19.22 21 18.38 21 16.7v-.4c0-1.68 0-2.52-.327-3.162a3 3 0 0 0-1.311-1.311C18.72 11.5 17.88 11.5 16.2 11.5H7.8c-1.68 0-2.52 0-3.162.327a3 3 0 0 0-1.311 1.311C3 13.78 3 14.62 3 16.3v.4c0 1.68 0 2.52.327 3.162a3 3 0 0 0 1.311 1.311c.642.327 1.482.327 3.162.327Z" opacity=".8"/></svg>