<svg xmlns="http://www.w3.org/2000/svg" width="300" height="323" fill="none"><rect width="300" height="323" fill="#D9D9D9" rx="8"/><path stroke="#C4C4C4" stroke-linecap="round" stroke-linejoin="round" stroke-width="2" d="M182 150v-12.024a7.998 7.998 0 0 0-7.976-8L162 129.94M182 174v12a8 8 0 0 1-8 8h-12m-24-64.06-12.024.04a7.998 7.998 0 0 0-7.976 8V150m20 44h-12a8 8 0 0 1-8-8v-12"/><path fill="#C4C4C4" d="M149.75 169.219c1.641 0 3.035-.574 4.184-1.722 1.148-1.149 1.722-2.544 1.722-4.185 0-1.64-.574-3.035-1.722-4.184-1.149-1.148-2.543-1.722-4.184-1.722s-3.035.574-4.184 1.722c-1.148 1.149-1.722 2.544-1.722 4.184 0 1.641.574 3.036 1.722 4.185 1.149 1.148 2.543 1.722 4.184 1.722Zm-10.5 4.593c-.722 0-1.34-.256-1.853-.77a2.526 2.526 0 0 1-.772-1.854v-15.75c0-.722.257-1.34.772-1.854a2.525 2.525 0 0 1 1.853-.772h4.134l2.428-2.624h7.876l2.428 2.624h4.134c.722 0 1.34.258 1.855.772a2.53 2.53 0 0 1 .77 1.854v15.75c0 .721-.257 1.34-.77 1.854a2.53 2.53 0 0 1-1.855.77h-21Z"/></svg>