<svg xmlns="http://www.w3.org/2000/svg" viewBox="0 0 30 32" width="18" height="18" fill="none" stroke="#FAFAFA"><path stroke-linecap="round" stroke-linejoin="round" stroke-width="2" opacity="0.8" d="M2.526 9.684l10.314 7.22c0.835 0.585 1.253 0.877 1.707 0.99 0.401 0.1 0.821 0.1 1.222 0 0.454-0.113 0.872-0.406 1.707-0.99l10.314-7.22M8.589 26.105h13.137c2.122 0 3.183 0 3.994-0.413 0.713-0.363 1.293-0.943 1.656-1.656 0.413-0.811 0.413-1.872 0.413-3.994v-8.084c0-2.122 0-3.183-0.413-3.994-0.363-0.713-0.943-1.293-1.656-1.656-0.811-0.413-1.872-0.413-3.994-0.413h-13.137c-2.122 0-3.183 0-3.994 0.413-0.713 0.363-1.293 0.943-1.656 1.656-0.413 0.811-0.413 1.872-0.413 3.994v8.084c0 2.122 0 3.183 0.413 3.994 0.363 0.713 0.943 1.293 1.656 1.656 0.811 0.413 1.872 0.413 3.994 0.413z"/></svg>