<svg xmlns="http://www.w3.org/2000/svg" viewBox="0 0 30 32" width="18" height="18" fill="none" stroke="#fafafa" ><path stroke-linecap="round" stroke-linejoin="round" stroke-width="2" opacity="0.8" d="M25.263 27.368c0-1.763 0-2.644-0.218-3.362-0.49-1.615-1.753-2.878-3.368-3.368-0.717-0.218-1.599-0.218-3.362-0.218h-6.316c-1.763 0-2.644 0-3.361 0.218-1.615 0.49-2.878 1.753-3.368 3.368-0.218 0.717-0.218 1.599-0.218 3.362M20.842 10.316c0 3.139-2.545 5.684-5.684 5.684s-5.684-2.545-5.684-5.684 2.545-5.684 5.684-5.684c3.139 0 5.684 2.545 5.684 5.684z"/></svg>


